<svg xmlns="http://www.w3.org/2000/svg" xml:space="preserve" id="Laag_1" x="0px" y="0px" version="1.1" viewBox="0 0 175.2 40.7"><style>.st0{fill:#608938}.st1{fill:#9bbd52}.st2{fill:#007c64}.st3{fill:#08a07e}</style><path d="M9.3 11.7v1.6c0 .2-.1.3-.3.3H.5c-.2 0-.4-.1-.4-.3V.7C.1.5.2.4.5.4h8.4c.2 0 .4.1.4.3v1.6c0 .2-.1.4-.4.4H2.8v3.1h5.4c.2 0 .4.1.4.4v1.6c0 .2-.1.3-.4.3H2.8v3.3H9c.2-.1.3 0 .3.3zM20.1 5.3v8c0 .2-.1.3-.4.3h-1.3c-.2 0-.3-.1-.4-.3l-.1-.8c-.5.8-1.5 1.3-2.7 1.3-2.3 0-4-1.6-4-4.1V5.3c0-.2.1-.3.3-.3h1.8c.2 0 .4.1.4.3v4c0 1.3.8 2.2 1.8 2.2 1.2 0 1.9-.9 1.9-2.1v-4c0-.2.1-.3.3-.3h1.8c.5-.2.6 0 .6.2zM28.4 5.2l-.1 1.7c0 .2-.2.3-.4.3-.1 0-.3-.1-.5-.1-1.4 0-2.2.9-2.2 2.1v4c0 .2-.1.3-.3.3H23c-.2 0-.4-.1-.4-.3v-8c0-.2.1-.3.4-.3h1.4c.2 0 .3.1.4.3l.1 1.4c.3-1.1 1.4-1.9 2.9-1.9h.4c.1.1.2.3.2.5zM29.4 9.3c0-2.6 2.1-4.5 4.7-4.5s4.7 1.9 4.7 4.5-2.1 4.5-4.7 4.5-4.7-2-4.7-4.5zm6.9 0c0-1.3-.9-2.3-2.2-2.3-1.2 0-2.2 1-2.2 2.3 0 1.3 1 2.3 2.2 2.3 1.3-.1 2.2-1.1 2.2-2.3zM50.1 9.3c0 2.6-1.8 4.5-4.2 4.5-1.1 0-2-.5-2.7-1.1V17c0 .2-.1.3-.4.3H41c-.2 0-.4-.1-.4-.3V5.3c0-.2.1-.3.4-.3h1.4c.2 0 .3.1.4.3l.2.7c.7-.7 1.6-1.2 2.9-1.2 2.4 0 4.2 1.9 4.2 4.5zm-2.4 0c0-1.3-1-2.3-2.2-2.3-1.4 0-2.2.9-2.2 2.3 0 1.3.9 2.3 2.2 2.3 1.2-.1 2.2-1.1 2.2-2.3zM60.5 9.6c0 .2-.1.3-.3.3h-6c.3 1 1.2 1.8 2.6 1.8 1 0 1.6-.4 2-.7.2-.1.4-.1.5.1l.7 1.2c.1.2.1.4-.1.5-.6.5-1.6 1-3.3 1-2.8 0-4.8-2-4.8-4.5s1.9-4.5 4.5-4.5 4.3 1.9 4.3 4.5c0 .1 0 .2-.1.3zm-6.3-1.2h4v-.1c-.2-.9-.9-1.6-1.9-1.6-1 0-1.8.6-2.1 1.7zM71.4 5.3v8c0 .2-.1.3-.4.3h-1.5c-.2 0-.4-.1-.4-.3l-.1-.8c-.6.8-1.6 1.3-2.9 1.3-2.4 0-4.2-1.9-4.2-4.5s1.8-4.5 4.2-4.5c1.1 0 2.1.4 2.7 1l.1-.5c0-.2.2-.3.4-.3h1.6c.4-.1.5.1.5.3zm-2.3 4c0-1.3-.9-2.3-2.2-2.3-1.3 0-2.2 1-2.2 2.3 0 1.3 1 2.3 2.2 2.3 1.3-.1 2.2-1 2.2-2.3zM82.9 8.8v4.4c0 .2-.1.3-.3.3h-1.8c-.2 0-.4-.1-.4-.3v-4c0-1.3-.8-2.2-1.9-2.2-1.2 0-2 .9-2 2.1v4.2c0 .2-.1.3-.3.3h-1.8c-.2 0-.4-.1-.4-.3v-8c0-.2.1-.3.4-.3h1.1c.2 0 .3.1.4.3l.1 1.1c.5-.9 1.6-1.6 3.2-1.6 2.2 0 3.7 1.5 3.7 4z" class="st0"/><path d="M95.8 5.1c0 2.9-2.2 4.6-5.5 4.7h-2v3.5c0 .2-.1.3-.3.3h-1.9c-.2 0-.4-.1-.4-.3V.7c0-.2.1-.3.4-.3h4.3c3.2 0 5.4 1.8 5.4 4.7zm-2.7 0c0-1.3-1.1-2.4-2.9-2.4h-1.9v4.8h1.9c1.9 0 2.9-1.1 2.9-2.4zM97.5 13.3V.5c0-.2.1-.3.4-.3h1.8c.2 0 .3.1.3.3v12.8c0 .2-.1.3-.3.3h-1.8c-.2 0-.4-.1-.4-.3zM111.4 5.3v8c0 .2-.1.3-.4.3h-1.5c-.2 0-.4-.1-.4-.3l-.1-.8c-.6.8-1.6 1.3-2.9 1.3-2.4 0-4.2-1.9-4.2-4.5s1.8-4.5 4.2-4.5c1.1 0 2.1.4 2.7 1l.1-.5c0-.2.2-.3.4-.3h1.6c.4-.1.5.1.5.3zm-2.4 4c0-1.3-.9-2.3-2.2-2.3-1.3 0-2.2 1-2.2 2.3 0 1.3 1 2.3 2.2 2.3 1.3-.1 2.2-1 2.2-2.3zM114.7 10.4V7h-1.4c-.2 0-.3-.1-.3-.4V5.3c0-.2.1-.3.3-.3h1.5V2.3c0-.2.1-.3.3-.3h1.7c.2 0 .4.1.4.3v2.6h2.9c.2 0 .4.1.4.3v1.4c0 .2-.1.4-.4.4h-2.9v3.1c0 1 .6 1.4 1.5 1.4.5 0 .8-.2 1.1-.3.2-.1.4-.1.5.1l.6 1.2c.1.2 0 .3-.2.5-.2.1-1 .7-2.6.7-2.1.1-3.4-1.1-3.4-3.3zM123.4 13.3V7h-1.3c-.2 0-.4-.1-.4-.4V5.3c0-.2.1-.3.4-.3h1.3V4c0-2.4 1.4-3.9 3.9-3.9.9 0 1.6.2 2 .5.2.1.2.3.1.5l-.6 1.3c-.1.2-.3.2-.5.2-.2-.1-.4-.1-.8-.1-.8 0-1.7.5-1.7 1.8v.9h2.3c.2 0 .3.1.3.3v1.4c0 .2-.1.4-.3.4h-2.3v6.3c0 .2-.1.3-.3.3h-1.8c-.1-.3-.3-.4-.3-.6zM129.6 9.3c0-2.6 2.1-4.5 4.7-4.5s4.7 1.9 4.7 4.5-2.1 4.5-4.7 4.5-4.7-2-4.7-4.5zm6.9 0c0-1.2-.9-2.3-2.2-2.3-1.2 0-2.2 1-2.2 2.3 0 1.3 1 2.3 2.2 2.3 1.2-.1 2.2-1.1 2.2-2.3zM146.7 5.2l-.1 1.7c0 .2-.2.3-.4.3-.1 0-.3-.1-.5-.1-1.4 0-2.2.9-2.2 2.1v4c0 .2-.1.3-.3.3h-1.8c-.2 0-.4-.1-.4-.3v-8c0-.2.1-.3.4-.3h1.4c.2 0 .3.1.4.3l.1 1.4c.3-1.1 1.4-1.9 2.9-1.9h.4c.1.1.2.3.1.5zM162.9 8.8v4.5c0 .2-.1.3-.3.3h-1.8c-.2 0-.4-.1-.4-.3V9.2c0-1.3-.7-2.2-1.7-2.2-1.1 0-1.9.9-1.9 2.1v4.1c0 .2-.1.3-.3.3h-1.8c-.2 0-.4-.1-.4-.3v-4c0-1.3-.7-2.2-1.7-2.2-1.2 0-1.9.9-1.9 2.1v4.2c0 .2-.1.3-.3.3h-1.8c-.2 0-.4-.1-.4-.3v-8c0-.2.1-.3.4-.3h1.1c.2 0 .3.1.4.3l.1 1.2c.5-.9 1.6-1.7 2.9-1.7 1.4 0 2.4.6 3.1 1.5.5-.8 1.5-1.5 2.8-1.5 2.3 0 3.9 1.6 3.9 4z" class="st1"/><path d="M0 25.7v-7.2c0-.2.1-.3.3-.3h1.9c.2 0 .3.1.3.3v7.4c0 1.8 1.1 3.3 3.2 3.3 2.2 0 3.2-1.5 3.2-3.3v-7.4c0-.2.1-.3.3-.3h1.9c.2 0 .3.1.3.3v7.2c0 3.8-2.3 5.9-5.8 5.9S0 29.5 0 25.7zM20.1 22.9l-.1 1.7c0 .2-.2.3-.4.3-.1 0-.3-.1-.5-.1-1.4 0-2.2.9-2.2 2.1v4c0 .2-.1.3-.3.3h-1.8c-.2 0-.4-.1-.4-.3v-8c0-.2.1-.3.4-.3h1.4c.2 0 .3.1.4.3l.1 1.4c.3-1.1 1.4-1.9 2.9-1.9h.4c.1.2.1.3.1.5zM31 27c0 2.6-1.8 4.5-4.2 4.5-1.3 0-2.3-.5-3-1.3l-.1.8c0 .2-.2.3-.4.3H22c-.2 0-.4-.1-.4-.3V18.2c0-.2.1-.3.4-.3h1.8c.2 0 .4.1.4.3v5.4c.6-.7 1.5-1.1 2.7-1.1 2.3 0 4.1 2 4.1 4.5zm-2.5 0c0-1.3-1-2.3-2.2-2.3-1.4 0-2.2 1-2.2 2.3 0 1.3.9 2.3 2.2 2.3 1.2 0 2.2-1 2.2-2.3zM41.9 23v8c0 .2-.1.3-.4.3H40c-.2 0-.4-.1-.4-.3l-.1-.8c-.5.8-1.5 1.3-2.8 1.3-2.4 0-4.2-1.9-4.2-4.5s1.8-4.5 4.2-4.5c1.1 0 2.1.4 2.7 1l.1-.5c0-.2.2-.3.4-.3h1.6c.2 0 .4.1.4.3zm-2.4 4c0-1.3-.9-2.3-2.2-2.3-1.3 0-2.2 1-2.2 2.3 0 1.3 1 2.3 2.2 2.3 1.3 0 2.2-1 2.2-2.3zM53.3 26.6V31c0 .2-.1.3-.3.3h-1.8c-.2 0-.4-.1-.4-.3v-4.1c0-1.3-.8-2.2-1.9-2.2-1.2 0-2 .9-2 2.1V31c0 .2-.1.3-.3.3h-1.8c-.2 0-.4-.1-.4-.3v-8c0-.2.1-.3.4-.3h1.1c.2 0 .3.1.4.3l.1 1.1c.5-.9 1.6-1.6 3.2-1.6 2.2 0 3.7 1.6 3.7 4.1z" class="st2"/><path d="M67.5 25.1v4.6c0 .2-.1.3-.2.4-.6.5-2.2 1.4-4.8 1.4-4.1 0-7.1-3-7.1-6.8s3-6.8 7.1-6.8c2.3 0 3.6.7 4.3 1.1.2.1.2.3.1.5L66 21c-.1.2-.3.2-.5.1-.5-.3-1.5-.7-3-.7-2.6 0-4.6 1.7-4.6 4.4 0 2.6 2 4.4 4.5 4.4 1 0 1.8-.2 2.4-.5v-3.6c0-.2.1-.3.4-.3h1.7c.4 0 .6.1.6.3zM75.8 22.9l-.1 1.7c0 .2-.2.3-.4.3-.1 0-.3-.1-.5-.1-1.4 0-2.2.9-2.2 2.1v4c0 .2-.1.3-.3.3h-1.8c-.2 0-.4-.1-.4-.3v-8c0-.2.1-.3.4-.3h1.4c.2 0 .3.1.4.3l.1 1.4c.3-1.1 1.4-1.9 2.9-1.9h.4c0 .2.1.3.1.5zM85.7 27.4c0 .2-.1.3-.3.3h-6c.3 1 1.2 1.8 2.6 1.8 1 0 1.6-.4 2-.7.2-.1.4-.1.5.1l.7 1.2c.1.2.1.4-.1.5-.6.5-1.6 1-3.3 1-2.8 0-4.8-2-4.8-4.5s1.9-4.5 4.5-4.5 4.3 1.9 4.3 4.5c-.1.1-.1.1-.1.3zm-6.4-1.3h4V26c-.2-.9-.9-1.6-1.9-1.6-1 .1-1.8.7-2.1 1.7zM96 27.4c0 .2-.1.3-.3.3h-6c.3 1 1.2 1.8 2.6 1.8 1 0 1.6-.4 2-.7.2-.1.4-.1.5.1l.7 1.2c.1.2.1.4-.1.5-.6.5-1.6 1-3.3 1-2.8 0-4.8-2-4.8-4.5s1.9-4.5 4.5-4.5 4.3 1.9 4.3 4.5c-.1.1-.1.1-.1.3zm-6.3-1.3h4V26c-.2-.9-.9-1.6-1.9-1.6-1.1.1-1.9.7-2.1 1.7zM106.9 26.6V31c0 .2-.1.3-.3.3h-1.8c-.2 0-.4-.1-.4-.3v-4.1c0-1.3-.8-2.2-1.9-2.2-1.2 0-2 .9-2 2.1V31c0 .2-.1.3-.3.3h-1.8c-.2 0-.4-.1-.4-.3v-8c0-.2.1-.3.4-.3h1.1c.2 0 .3.1.4.3l.1 1.1c.5-.9 1.6-1.6 3.2-1.6 2.2 0 3.7 1.6 3.7 4.1zM108.9 19.6c0-.9.7-1.5 1.6-1.6.9 0 1.6.6 1.6 1.6 0 .9-.7 1.6-1.6 1.6-.9 0-1.6-.6-1.6-1.6zm.4 11.4v-8c0-.2.1-.3.3-.3h1.8c.2 0 .4.1.4.3v8c0 .2-.1.3-.4.3h-1.8c-.2.1-.3-.1-.3-.3zM123.2 26.6V31c0 .2-.1.3-.3.3h-1.8c-.2 0-.4-.1-.4-.3v-4.1c0-1.3-.8-2.2-1.9-2.2-1.2 0-2 .9-2 2.1V31c0 .2-.1.3-.3.3h-1.8c-.2 0-.4-.1-.4-.3v-8c0-.2.1-.3.4-.3h1.1c.2 0 .3.1.4.3l.1 1.1c.5-.9 1.6-1.6 3.2-1.6 2.2 0 3.7 1.6 3.7 4.1zM134.4 23.1v7.7c0 2.5-1.7 4.4-4.7 4.4-1.8 0-3-.4-3.8-1-.2-.1-.2-.3-.1-.5l.7-1.2c.1-.2.3-.2.5-.1.7.4 1.6.6 2.6.6 1.5 0 2.4-.8 2.4-2v-.7c-.6.6-1.5 1.1-2.6 1.1-2.4 0-4.2-1.9-4.2-4.5s1.8-4.5 4.2-4.5c1.3 0 2.3.5 3 1.3l.1-.8c0-.2.2-.3.4-.3h1.3c.1.1.2.2.2.5zm-2.3 3.9c0-1.3-.9-2.3-2.2-2.3-1.3 0-2.2 1-2.2 2.3 0 1.3 1 2.3 2.2 2.3 1.3 0 2.2-1 2.2-2.3z" class="st3"/><g><path d="m158.9 30.8 6.9 6.9-.7.3c-2 1-4 1.7-5.9 2.2l-.3.1-9.5-9.5h9.5z" class="st3"/><path d="m157.1 40.6-1.2.1c-1.1.1-2.3 0-3.4-.1-5-.7-9.3-3.7-12.7-8.9l-.6-.9h8l9.9 9.8z" class="st2"/><path d="M140.4 29.3h-1.1l.6-.8c3.5-5.2 7.7-8.2 12.7-8.9.7-.1 1.5-.2 2.3-.2h1.2l1.2.1-9.8 9.8h-7.1z" class="st0"/><path d="m149.5 29.3 9.5-9.5.3.1c1.9.5 3.9 1.2 5.9 2.2l.7.3-6.9 6.9h-9.5z" class="st1"/><path fill="#c8d8ab" d="m167.2 23.2.4.2c2.2 1.3 4.4 3 6.6 4.9l1.1 1h-14.1l6-6.1z"/><path fill="#74b89f" d="M173.8 30.8h1.4l-1.1.9c-2.2 1.9-4.4 3.6-6.6 4.9l-.4.2-6.1-6.1h12.8z"/></g></svg>